<?xml version="1.0" encoding="UTF-8" standalone="no"?>
<svg
   xmlns:ns="http://ns.adobe.com/SaveForWeb/1.0/"
   xmlns:dc="http://purl.org/dc/elements/1.1/"
   xmlns:cc="http://creativecommons.org/ns#"
   xmlns:rdf="http://www.w3.org/1999/02/22-rdf-syntax-ns#"
   xmlns:svg="http://www.w3.org/2000/svg"
   xmlns="http://www.w3.org/2000/svg"
   xmlns:sodipodi="http://sodipodi.sourceforge.net/DTD/sodipodi-0.dtd"
   xmlns:inkscape="http://www.inkscape.org/namespaces/inkscape"
   version="1.1"
   x="0px"
   y="0px"
   viewBox="0 0 52 52"
   enable-background="new 0 0 64 64"
   xml:space="preserve"
   id="svg12"
   sodipodi:docname="noun_contact_631929.svg"
   width="52"
   height="52"
   inkscape:version="0.92.4 5da689c313, 2019-01-14"><defs
     id="defs16" /><sodipodi:namedview
     pagecolor="#ffffff"
     bordercolor="#666666"
     borderopacity="1"
     objecttolerance="10"
     gridtolerance="10"
     guidetolerance="10"
     inkscape:pageopacity="0"
     inkscape:pageshadow="2"
     inkscape:window-width="1065"
     inkscape:window-height="629"
     id="namedview14"
     showgrid="false"
     fit-margin-top="4"
     fit-margin-left="0"
     fit-margin-right="0"
     fit-margin-bottom="4"
     inkscape:zoom="2.95"
     inkscape:cx="26"
     inkscape:cy="18"
     inkscape:window-x="2120"
     inkscape:window-y="178"
     inkscape:window-maximized="0"
     inkscape:current-layer="svg12" /><metadata
     id="metadata2"><ns:sfw><ns:slices /><ns:sliceSourceBounds
         height="16384"
         width="16389"
         x="-8165"
         y="-8160"
         bottomLeftOrigin="true" /></ns:sfw><rdf:RDF><cc:Work
         rdf:about=""><dc:format>image/svg+xml</dc:format><dc:type
           rdf:resource="http://purl.org/dc/dcmitype/StillImage" /><dc:title></dc:title></cc:Work></rdf:RDF></metadata><g
     id="g6"
     transform="translate(-6,-6)"><path
       d="M 56,10 H 8 c -1.104,0 -2,0.896 -2,2 v 32 c 0,1.104 0.896,2 2,2 h 7.469 l 13.539,7.736 C 29.315,53.912 29.658,54 30,54 30.347,54 30.693,53.91 31.004,53.729 31.621,53.372 32,52.713 32,52 v -6 h 24 c 1.104,0 2,-0.896 2,-2 V 12 c 0,-1.104 -0.896,-2 -2,-2 z M 54,42 H 30 c -1.104,0 -2,0.896 -2,2 v 4.554 L 16.992,42.264 C 16.69,42.091 16.348,42 16,42 H 10 V 14 h 44 z"
       id="path4"
       inkscape:connector-curvature="0" /></g></svg>