<?xml version="1.0" encoding="UTF-8" standalone="no"?>
<svg
   xmlns:dc="http://purl.org/dc/elements/1.1/"
   xmlns:cc="http://creativecommons.org/ns#"
   xmlns:rdf="http://www.w3.org/1999/02/22-rdf-syntax-ns#"
   xmlns:svg="http://www.w3.org/2000/svg"
   xmlns="http://www.w3.org/2000/svg"
   xmlns:sodipodi="http://sodipodi.sourceforge.net/DTD/sodipodi-0.dtd"
   xmlns:inkscape="http://www.inkscape.org/namespaces/inkscape"
   data-name="Layer 1"
   viewBox="0 0 79.019997 79.019997"
   x="0px"
   y="0px"
   version="1.1"
   id="svg14"
   sodipodi:docname="noun_Goals_982021.svg"
   width="79.019997"
   height="79.019997"
   inkscape:version="0.92.4 5da689c313, 2019-01-14">
  <metadata
     id="metadata20">
    <rdf:RDF>
      <cc:Work
         rdf:about="">
        <dc:format>image/svg+xml</dc:format>
        <dc:type
           rdf:resource="http://purl.org/dc/dcmitype/StillImage" />
        <dc:title>NounProject1</dc:title>
      </cc:Work>
    </rdf:RDF>
  </metadata>
  <defs
     id="defs18" />
  <sodipodi:namedview
     pagecolor="#ffffff"
     bordercolor="#666666"
     borderopacity="1"
     objecttolerance="10"
     gridtolerance="10"
     guidetolerance="10"
     inkscape:pageopacity="0"
     inkscape:pageshadow="2"
     inkscape:window-width="1236"
     inkscape:window-height="740"
     id="namedview16"
     showgrid="false"
     fit-margin-top="0"
     fit-margin-left="0"
     fit-margin-right="0"
     fit-margin-bottom="0"
     inkscape:zoom="1.888"
     inkscape:cx="39.491498"
     inkscape:cy="27.051134"
     inkscape:window-x="2208"
     inkscape:window-y="133"
     inkscape:window-maximized="0"
     inkscape:current-layer="svg14" />
  <title
     id="title2">NounProject1</title>
  <path
     d="m 67.121498,25.468866 a 31,31 0 1 1 -13.63,-13.63 l 6.26,-6.2600002 a 39.51,39.51 0 1 0 13.63,13.5900002 z"
     id="path4"
     inkscape:connector-curvature="0" />
  <path
     d="m 76.911498,12.558866 -9.36,-1.15 -1.15,-9.3600002 -10,10.0000002 v 6.79 l -4.68,4.68 -5.23,5.19 v 0 l -4.54,4.54 a 6.71,6.71 0 1 0 3.72,3.72 l 4.58,-4.5 v 0 l 7.78,-7.78 v 0 l 2.09,-2.09 h 6.79 z"
     id="path6"
     inkscape:connector-curvature="0" />
  <path
     d="m 44.491498,27.638866 8,-8 a 23.74,23.74 0 1 0 6.84,6.83 l -8,8 a 12.86,12.86 0 1 1 -6.84,-6.83 z"
     id="path8"
     inkscape:connector-curvature="0" />
</svg>
