<?xml version="1.0" encoding="UTF-8" standalone="no"?>
<svg
   xmlns:dc="http://purl.org/dc/elements/1.1/"
   xmlns:cc="http://creativecommons.org/ns#"
   xmlns:rdf="http://www.w3.org/1999/02/22-rdf-syntax-ns#"
   xmlns:svg="http://www.w3.org/2000/svg"
   xmlns="http://www.w3.org/2000/svg"
   xmlns:sodipodi="http://sodipodi.sourceforge.net/DTD/sodipodi-0.dtd"
   xmlns:inkscape="http://www.inkscape.org/namespaces/inkscape"
   version="1.1"
   x="0px"
   y="0px"
   viewBox="0 0 47.999996 48"
   enable-background="new 0 0 48 48"
   xml:space="preserve"
   id="svg20"
   sodipodi:docname="noun_team_1091926.svg"
   width="47.999996"
   height="48"
   inkscape:version="0.92.4 5da689c313, 2019-01-14"><metadata
     id="metadata26"><rdf:RDF><cc:Work
         rdf:about=""><dc:format>image/svg+xml</dc:format><dc:type
           rdf:resource="http://purl.org/dc/dcmitype/StillImage" /><dc:title></dc:title></cc:Work></rdf:RDF></metadata><defs
     id="defs24" /><sodipodi:namedview
     pagecolor="#ffffff"
     bordercolor="#666666"
     borderopacity="1"
     objecttolerance="10"
     gridtolerance="10"
     guidetolerance="10"
     inkscape:pageopacity="0"
     inkscape:pageshadow="2"
     inkscape:window-width="1321"
     inkscape:window-height="704"
     id="namedview22"
     showgrid="false"
     fit-margin-top="6.75"
     fit-margin-left="0.02555"
     fit-margin-right="0.02555"
     fit-margin-bottom="6.75"
     inkscape:zoom="3.9333333"
     inkscape:cx="24.474979"
     inkscape:cy="17.033053"
     inkscape:window-x="2148"
     inkscape:window-y="85"
     inkscape:window-maximized="0"
     inkscape:current-layer="svg20" /><g
     id="g14"
     transform="translate(-0.033496,-0.04999971)"><path
       d="m 24,27.8 c -5.9,0 -11,3.8 -12.7,9.2 -0.7,2.1 0.9,4.3 3.2,4.3 h 19.2 c 2.2,0 3.9,-2.2 3.2,-4.3 C 35,31.6 29.9,27.8 24,27.8 Z"
       id="path2"
       inkscape:connector-curvature="0" /><circle
       cx="24"
       cy="18.700001"
       r="6.3000002"
       id="circle4" /><path
       d="m 47.9,26.8 c -1.5,-4.3 -5.6,-7.5 -10.4,-7.5 -2,0 -3.8,0.5 -5.4,1.4 -0.6,2.4 -2.3,4.4 -4.5,5.5 2.8,0.7 5.3,2.1 7.3,4.1 h 10.4 c 1.8,0 3.1,-1.8 2.6,-3.5 z"
       id="path6"
       inkscape:connector-curvature="0" /><circle
       cx="37.5"
       cy="11.9"
       r="5.0999999"
       id="circle8" /><path
       d="m 20.4,26.2 c -2.2,-1.1 -3.8,-3 -4.4,-5.5 -1.6,-0.9 -3.4,-1.4 -5.4,-1.4 -4.8,0 -8.9,3.1 -10.4,7.5 -0.6,1.7 0.8,3.5 2.6,3.5 h 10.4 c 1.9,-2 4.4,-3.4 7.2,-4.1 z"
       id="path10"
       inkscape:connector-curvature="0" /><circle
       cx="10.5"
       cy="11.9"
       r="5.0999999"
       id="circle12" /></g></svg>